<?xml version="1.0" encoding="utf-8"?>
<!-- Generator: Adobe Illustrator 16.0.0, SVG Export Plug-In . SVG Version: 6.00 Build 0)  -->
<!DOCTYPE svg PUBLIC "-//W3C//DTD SVG 1.1//EN" "http://www.w3.org/Graphics/SVG/1.1/DTD/svg11.dtd">
<svg version="1.1" id="Layer_1" xmlns="http://www.w3.org/2000/svg" xmlns:xlink="http://www.w3.org/1999/xlink" x="0px" y="0px"
	 width="2000px" height="884.297px" viewBox="0 0 2000 884.297" enable-background="new 0 0 2000 884.297" xml:space="preserve">
<rect y="0" fill="#A72822" width="2000" height="884.297"/>
<g>
	<path fill="#FFFFFF" d="M1003.725,600.352l-0.048,32.88l-122.289,0.117l0.014-37.598l-1.737-0.061
		c-24.372,25.601-60.331,45.092-100.543,45.092c-49.369,0-101.766-30.479-101.766-96.882V383.63c0-8.527-3.06-18.896-12.809-20.73
		c0,0-27.358-4.414-29.866-4.891v-33.966c2.188-0.161,126.778-10.992,130.416-11.315v200.714c0,44.47,26.208,63.961,56.677,63.961
		c31.086,0,56.07-21.924,56.07-56.052V383.63c0-8.527-3.044-18.896-12.801-20.73l-29.945-4.298l0.01-34.958
		c0,0,127.272-10.746,130.497-11.063v255.068l0.137,8.45c0,12.187,4.972,17.76,10.389,18.897
		C985.108,596.885,1003.725,600.352,1003.725,600.352z"/>
	<path fill="#FFFFFF" d="M1152.207,643.373c-100.55,0-155.988-71.302-155.988-163.305c0-93.233,62.746-172.463,162.085-172.463
		c100.546,0,156.021,70.078,156.021,162.101C1314.324,562.936,1251.541,643.373,1152.207,643.373z M1155.253,356.361
		c-49.36,0-63.388,48.138-63.388,113.345c0,101.74,35.976,124.915,63.388,124.915c49.354,0,63.38-49.341,63.38-114.553
		C1218.633,378.299,1182.682,356.361,1155.253,356.361z"/>
	<path fill="#FFFFFF" d="M1426.718,373.022c20.983-36.722,68.807-68.667,117.385-60.231l10.564,73.37
		c-32.872-2.302-102.159,13.474-122.595,65.544l-0.048,124.112c0,12.187,4.891,18.288,10.391,18.897l48.175,5.638l-0.222,33.36
		h-201.023v-31.767l44.583-7.231c5.484-1.219,10.358-6.711,10.358-18.897l0.021-191.255c0-8.534-3.051-19.504-12.8-20.714
		l-27.646-4.27c0,0,6.23,1.651-8.668-1.314l0.093-35.746c0,0,118.37-10.214,122.345-10.539l7.591,61.052L1426.718,373.022z"/>
	<path fill="#FFFFFF" d="M1807.532,595.312c-5.427-1.086-10.392-6.707-10.392-18.894l0.098-150.688
		c0-78.129-42.775-110.557-107.685-114.938c-37.532-2.532-91.764,4.371-123.289,19.316l9.835,62.952
		c34.103-15.075,71.748-27.11,103.016-18.928c20.601,5.391,33.247,20.013,33.247,44.887l0.085,18.982
		c-1.747,0-8.395-0.164-10.227-0.164c-85.848,0.164-170.252,28.103-170.252,115.234c0,51.787,35.354,87.734,92.039,87.734
		c50.567,0,77.383-23.155,93.232-42.049l1.664,0.068l-0.021,34.979l116.296-0.125l0.137-32.872L1807.532,595.312z M1711.963,515.834
		c0,39.628-36.254,50.346-61.41,49.596c-25.908-0.764-36.053-17.264-36.053-34.435c0-25.79,26.182-41.907,97.587-41.907
		L1711.963,515.834z"/>
	<path fill="#FFFFFF" d="M517.363,617.861c0,0,0.052-0.17,0.119-0.348c64.893-40.24,108.288-113.652,108.288-201.617
		c0-169.462-109.745-229.657-224.465-229.657c-108.272,0-225.929,85.062-225.929,232.924c0,169.461,109.72,231.614,224.495,231.614
		c18.038,0,35.572-2.163,52.399-6.178c0,0,0.25,0.084,0.41,0.108c45.218,80.793,112.562,61.241,129.939,54.873
		c0,0-2.331-14.22-6.411-40.685C543.72,658.065,529.244,641.759,517.363,617.861z M430.522,590.344
		c-10.28,2.526-20.674,3.515-30.721,3.515c-53.408,0-117.372-23.066-117.372-167.022c0-143.926,66.987-183.668,120.399-183.668
		c53.4,0,115.507,34.25,115.507,178.19c0,65.249-13.275,106.74-32.8,132.656c-0.292,0.016-0.535-0.053-0.535-0.053
		c-44.412-57.303-102.041-43.57-115.859-37.348c0,0,1.763,13.143,5.417,37.033c30.483-0.009,45.579,15.798,56.124,36.213
		C430.582,590.081,430.522,590.344,430.522,590.344z"/>
</g>
</svg>
